info: http://forum.tntvillage.scambioetico.org/tntforum/index.php?showtopic=236098

[b]Titolo: The Lord Of The Rings Special 3 CDs[/b]
[b]Anno: 2001/2003 [/b]                                    
[b]Genere: Soundtrack [/b]
[b]Etichetta:  Reprise Records [/b]
[b]Tipo di rip: Flac singoli + Cue - Test&Copy
Full Artwork a 300dpi risoluzione xxxx X 2900 px circa 
incluse card promozionali[/b]

[IMG]http://img829.imageshack.us/img829/8379/tracklist.gif[/IMG]

[b] The Fellowship Of The Ring [/b]

[IMG]http://img812.imageshack.us/img812/2048/folderit.jpg[/IMG]

[b]Length: 71:27

Tracklist:

  1.  The Prophecy (3:55)
  2.  Concerning Hobbits (2:55)
  3.  The Shadow of the Past (3:33)
  4.  The Treason of Isengard (4:01)
  5.  The Black Rider (2:48)
  6.  At the Sign of the Prancing Pony (3:14)
  7.  A Knife in the Dark (3:34)
  8.  Flight to the Ford (4:15)
  9.  Many Meetings (3:05)
10.  The Council of Elrond (feat. "Aníron (Theme for Aragorn and Arwen)") (3:49)
11.  The Ring Goes South (2:03)
12.  A Journey in the Dark (4:20)
13.  The Bridge of Khazad-Dûm (5:57)
14.  Lothlórien / Lament for Gandalf (4:34)
15.  The Great River (2:43)
16.  Amon Hen (5:02)
17.  The Breaking of the Fellowship / In Dreams (7:21)
18.  Enya - May It Be (4:18)[/b]

[b] The Two Towers [/b]

[IMG]http://img718.imageshack.us/img718/5363/folderdyd.jpg[/IMG]

[b]Length: 73:24

Tracklist:

  1.  Foundations of Stone (3:54)
  2.  The Taming of Sméagol (2:51)
  3.  The Riders of Rohan (4:08)
  4.  The Passage of the Marshes (2:48)
  5.  The Uruk-hai (3:01)
  6.  The King of the Golden Hall (3:51)
  7.  The Black Gate Is Closed (3:20)
  8.  Evenstar (feat. Isabel Bayrakdarian) (3:18)
  9.  The White Rider (2:30)
10.  Treebeard (2:46)
11.  The Leave Taking (3:44)
12.  Helm's Deep (3:55)
13.  The Forbidden Pool (5:29)
14.  Breath of Life (feat. Sheila Chandra) (5:10)
15.  The Hornburg (4:39)
16.  Forth Eorlingas (feat. Ben Del Maestro) (3:18)
17.  Isengard Unleashed (feat. Elizabeth Fraser & Ben Del Maestro) (5:03)
18.  Samwise the Brave (3:48)
19.  Gollum's Song (feat. Emiliana Torrini) (5:51)[/b]

[b]The Return Of The King[/b]

[IMG]http://img839.imageshack.us/img839/2556/foldervl.jpg[/IMG]

[b]Length: 72:46

Tracklist:

01. A Storm Is Coming  (02:52)
02. Hope And Memory  (01:46)
03. Minas Tirith (featuring Ben del Maestro)  (03:37)
04. The White Tree  (03:25)
05. The Steward Of Gondor (featuring Billy Boyd)  (03:53)
06. Minas Morgul  (01:58)
07. The Ride Of The Rohirrim  (02:09)
08. Twilight And Shadow (featuring Renée Fleming)  (03:30)
09. Cirith Ungol  (01:44)
10. Andúril  (02:35)
11. Shelob's Lair  (04:07)
12. Ash And Smoke  (03:25)
13. The Fields Of The Pelennor  (03:26)
14. Hope Fails  (02:21)
15. The Black Gate Opens (featuring Sir James Galway)  (04:02)
16. The End Of All Things (featuring Renee Fleming)  (05:13)
17. The Return Of The King (featuring Sir James Galway, Viggo Mortensen, Renee Fleming)  (10:14)
18. The Grey Havens (featuring Sir James Galway)  (05:59)
19. Into The West (performed by Annie Lennox)  (05:48)[/b]

[IMG]http://img835.imageshack.us/img835/3615/note.gif[/IMG]

Exact Audio Copy V0.99 prebeta 5 from 4. May 2009

EAC extraction logfile from 31. August 2010, 15:28

Howard Shore / Lord of the Rings - Fellowship of the Ring

Used drive  : Optiarc DVD RW AD-7170S   Adapter: 1  ID: 0

Read mode               : Secure
Utilize accurate stream : Yes
Defeat audio cache      : No
Make use of C2 pointers : No

Read offset correction                      : 48
Overread into Lead-In and Lead-Out          : No
Fill up missing offset samples with silence : Yes
Delete leading and trailing silent blocks   : No
Null samples used in CRC calculations       : Yes
Used interface                              : Native Win32 interface for Win NT & 2000
Gap handling                                : Appended to previous track

Used output format              : User Defined Encoder
Selected bitrate                : 320 kBit/s
Quality                         : High
Add ID3 tag                     : No
Command line compressor         : C:\Program Files\Exact Audio Copy\Flac\flac.exe
Additional command line options : -V -8 -T "artist=%a" -T "title=%t" -T "album=%g" -T "date=%y" -T "tracknumber=%n" -T "genre=%m" %s  


TOC of the extracted CD

    Track |   Start  |  Length  | Start sector | End sector
   ---------------------------------------------------------
       1  |  0:00.00 |  3:55.02 |         0    |    17626  
       2  |  3:55.02 |  2:55.03 |     17627    |    30754  
       3  |  6:50.05 |  3:32.72 |     30755    |    46726  
       4  | 10:23.02 |  4:00.48 |     46727    |    64774  
       5  | 14:23.50 |  2:48.10 |     64775    |    77384  
       6  | 17:11.60 |  3:14.05 |     77385    |    91939  
       7  | 20:25.65 |  3:34.25 |     91940    |   108014  
       8  | 24:00.15 |  4:14.70 |    108015    |   127134  
       9  | 28:15.10 |  3:05.32 |    127135    |   141041  
      10  | 31:20.42 |  3:49.08 |    141042    |   158224  
      11  | 35:09.50 |  2:03.00 |    158225    |   167449  
      12  | 37:12.50 |  4:20.20 |    167450    |   186969  
      13  | 41:32.70 |  5:57.30 |    186970    |   213774  
      14  | 47:30.25 |  4:33.70 |    213775    |   234319  
      15  | 52:04.20 |  2:42.55 |    234320    |   246524  
      16  | 54:47.00 |  5:02.15 |    246525    |   269189  
      17  | 59:49.15 |  7:20.60 |    269190    |   302249  
      18  | 67:10.00 |  4:17.57 |    302250    |   321581  
      19  | 73:59.57 |  0:06.02 |    332982    |   333433  


Track  1

    Filename F:\Ripped\Howard Shore - 2001 - Lord of the Rings - Fellowship of the Ring [FLAC]\01 - The Prophecy.wav

    Pre-gap length  0:00:02.00

    Peak level 99.1 %
    Track quality 100.0 %
    Test CRC 9B4EE959
    Copy CRC 9B4EE959
    Accurately ripped (confidence 200)  [0AD8C6F5]
    Copy OK

Track  2

    Filename F:\Ripped\Howard Shore - 2001 - Lord of the Rings - Fellowship of the Ring [FLAC]\02 - Concerning Hobbits.wav

    Peak level 50.6 %
    Track quality 100.0 %
    Test CRC 8D48112F
    Copy CRC 8D48112F
    Accurately ripped (confidence 200)  [3145EFF5]
    Copy OK

Track  3

    Filename F:\Ripped\Howard Shore - 2001 - Lord of the Rings - Fellowship of the Ring [FLAC]\03 - The shadow of the past.wav

    Peak level 99.1 %
    Track quality 100.0 %
    Test CRC 75C911BC
    Copy CRC 75C911BC
    Accurately ripped (confidence 200)  [53FFA491]
    Copy OK

Track  4

    Filename F:\Ripped\Howard Shore - 2001 - Lord of the Rings - Fellowship of the Ring [FLAC]\04 - The treason of Isengard.wav

    Peak level 99.1 %
    Track quality 100.0 %
    Test CRC ADBF3158
    Copy CRC ADBF3158
    Accurately ripped (confidence 200)  [623043C0]
    Copy OK

Track  5

    Filename F:\Ripped\Howard Shore - 2001 - Lord of the Rings - Fellowship of the Ring [FLAC]\05 - The Black rider.wav

    Peak level 99.1 %
    Track quality 100.0 %
    Test CRC 6E65A90E
    Copy CRC 6E65A90E
    Accurately ripped (confidence 200)  [5B096B33]
    Copy OK

Track  6

    Filename F:\Ripped\Howard Shore - 2001 - Lord of the Rings - Fellowship of the Ring [FLAC]\06 - At the sign of the Prancing Pony.wav

    Peak level 99.1 %
    Track quality 100.0 %
    Test CRC E2EBD7E3
    Copy CRC E2EBD7E3
    Accurately ripped (confidence 200)  [0224CABF]
    Copy OK

Track  7

    Filename F:\Ripped\Howard Shore - 2001 - Lord of the Rings - Fellowship of the Ring [FLAC]\07 - A knife in the dark.wav

    Peak level 99.1 %
    Track quality 100.0 %
    Test CRC 3078484A
    Copy CRC 3078484A
    Accurately ripped (confidence 200)  [F7F700A8]
    Copy OK

Track  8

    Filename F:\Ripped\Howard Shore - 2001 - Lord of the Rings - Fellowship of the Ring [FLAC]\08 - Flight to the ford.wav

    Peak level 99.1 %
    Track quality 100.0 %
    Test CRC 35D4458A
    Copy CRC 35D4458A
    Accurately ripped (confidence 200)  [8A925BA9]
    Copy OK

Track  9

    Filename F:\Ripped\Howard Shore - 2001 - Lord of the Rings - Fellowship of the Ring [FLAC]\09 - Many meetings.wav

    Peak level 87.2 %
    Track quality 100.0 %
    Test CRC 7DFB0B50
    Copy CRC 7DFB0B50
    Accurately ripped (confidence 200)  [90EE0544]
    Copy OK

Track 10

    Filename F:\Ripped\Howard Shore - 2001 - Lord of the Rings - Fellowship of the Ring [FLAC]\10 - The council of Elrond featuring 'Aníron (theme for Aragorn and Arwen)'.wav

    Peak level 99.1 %
    Track quality 99.9 %
    Test CRC 08EF25B5
    Copy CRC 08EF25B5
    Accurately ripped (confidence 200)  [51D38225]
    Copy OK

Track 11

    Filename F:\Ripped\Howard Shore - 2001 - Lord of the Rings - Fellowship of the Ring [FLAC]\11 - The Ring goes south.wav

    Peak level 99.1 %
    Track quality 100.0 %
    Test CRC 4F1F4F13
    Copy CRC 4F1F4F13
    Accurately ripped (confidence 200)  [478374C0]
    Copy OK

Track 12

    Filename F:\Ripped\Howard Shore - 2001 - Lord of the Rings - Fellowship of the Ring [FLAC]\12 - A journey in the dark.wav

    Peak level 99.1 %
    Track quality 100.0 %
    Test CRC E3BD0181
    Copy CRC E3BD0181
    Accurately ripped (confidence 200)  [7057B954]
    Copy OK

Track 13

    Filename F:\Ripped\Howard Shore - 2001 - Lord of the Rings - Fellowship of the Ring [FLAC]\13 - The bridge of Khazad Dum.wav

    Peak level 99.2 %
    Track quality 100.0 %
    Test CRC AC6FF379
    Copy CRC AC6FF379
    Accurately ripped (confidence 200)  [5A598A84]
    Copy OK

Track 14

    Filename F:\Ripped\Howard Shore - 2001 - Lord of the Rings - Fellowship of the Ring [FLAC]\14 - Lothlorien.wav

    Peak level 83.8 %
    Track quality 99.9 %
    Test CRC D3EFA6B5
    Copy CRC D3EFA6B5
    Accurately ripped (confidence 200)  [FDF9DFC3]
    Copy OK

Track 15

    Filename F:\Ripped\Howard Shore - 2001 - Lord of the Rings - Fellowship of the Ring [FLAC]\15 - The Great river.wav

    Peak level 99.1 %
    Track quality 100.0 %
    Test CRC 5545FB24
    Copy CRC 5545FB24
    Accurately ripped (confidence 200)  [7D90E948]
    Copy OK

Track 16

    Filename F:\Ripped\Howard Shore - 2001 - Lord of the Rings - Fellowship of the Ring [FLAC]\16 - Amon Hen.wav

    Peak level 99.1 %
    Track quality 100.0 %
    Test CRC 2493EA62
    Copy CRC 2493EA62
    Accurately ripped (confidence 200)  [3DB4F4A0]
    Copy OK

Track 17

    Filename F:\Ripped\Howard Shore - 2001 - Lord of the Rings - Fellowship of the Ring [FLAC]\17 - The breaking of the Fellowship.wav

    Peak level 89.5 %
    Track quality 100.0 %
    Test CRC 5F72148B
    Copy CRC 5F72148B
    Accurately ripped (confidence 200)  [47D1165D]
    Copy OK

Track 18

    Filename F:\Ripped\Howard Shore - 2001 - Lord of the Rings - Fellowship of the Ring [FLAC]\18 - May it be.wav

    Peak level 99.1 %
    Track quality 100.0 %
    Test CRC 13BBA3CC
    Copy CRC 13BBA3CC
    Accurately ripped (confidence 200)  [E7F953F6]
    Copy OK


All tracks accurately ripped

No errors occurred

End of status report
